<svg>
    <symbol id="icon-search"  viewBox="0 0 17 18"  xmlns="http://www.w3.org/2000/svg">
        <path d="M11.9276 12.7748L15.37 17.0644" stroke="white" stroke-linecap="round"/>
        <circle cx="8.48533" cy="8.48526" r="5.5" transform="rotate(-38.7469 8.48533 8.48526)" stroke="white"/>
    </symbol>
    <symbol id="icon-watch"  viewBox="0 0 12 12"  xmlns="http://www.w3.org/2000/svg">
        <circle cx="6" cy="6" r="5.5" stroke="#696969"/>
        <path d="M4 6H6.5V2.5" stroke="#696969"/>
    </symbol>
    <symbol id="icon-like"  viewBox="0 0 16 14"  xmlns="http://www.w3.org/2000/svg">
        <path d="M8.34372 2.25572H8.36529C9.29718 1.44175 11.7563 0.165765 13.9565 1.76734C17.3111 4.20921 14.2458 9.5 8.36529 13H8.34372M8.34378 2.25572H8.32221C7.39032 1.44175 4.93121 0.165765 2.73102 1.76734C-0.623552 4.20921 2.44172 9.5 8.32221 13H8.34378"/>
    </symbol>
    <symbol id="icon-note"  viewBox="0 0 20 19"  xmlns="http://www.w3.org/2000/svg">
        <path d="M8 16V1.9697L19 1V13" stroke="#4E4E4E"/>
        <ellipse cx="4.5" cy="16" rx="3.5" ry="2" stroke="#4E4E4E"/>
        <ellipse cx="15.5" cy="13" rx="3.5" ry="2" stroke="#4E4E4E"/>
    </symbol>
    <symbol id="icon-volume" fill="none" viewBox="0 0 14 18" xmlns="http://www.w3.org/2000/svg">
        <mask id="path-1-inside-1_2985_507" fill="white">
        <path fill-rule="evenodd" clip-rule="evenodd" d="M8 0L3 5H0V13H3L8 18V0Z"/>
        </mask>
        <path d="M3 5V6H3.41421L3.70711 5.70711L3 5ZM8 0H9V-2.41421L7.29289 -0.707107L8 0ZM0 5V4H-1V5H0ZM0 13H-1V14H0V13ZM3 13L3.70711 12.2929L3.41421 12H3V13ZM8 18L7.29289 18.7071L9 20.4142V18H8ZM3.70711 5.70711L8.70711 0.707107L7.29289 -0.707107L2.29289 4.29289L3.70711 5.70711ZM0 6H3V4H0V6ZM1 13V5H-1V13H1ZM3 12H0V14H3V12ZM8.70711 17.2929L3.70711 12.2929L2.29289 13.7071L7.29289 18.7071L8.70711 17.2929ZM7 0V18H9V0H7Z" fill="white" mask="url(#path-1-inside-1_2985_507)"/>
        <path d="M11 13C12.1046 13 13 11.2091 13 9C13 6.79086 12.1046 5 11 5" stroke="white"/>
    </symbol>
    <symbol id="icon-dislike"  viewBox="0 0 16 15"  xmlns="http://www.w3.org/2000/svg">
        <path d="M8.34372 3.25572H8.36529C9.29718 2.44175 11.7563 1.16576 13.9565 2.76734C17.3111 5.20921 14.2458 10.5 8.36529 14H8.34372M8.34378 3.25572H8.32221C7.39032 2.44175 4.93121 1.16576 2.73102 2.76734C-0.623552 5.20921 2.44172 10.5 8.32221 14H8.34378" />
        <path d="M1 1L15 13.5" />
    </symbol>
    <symbol id="icon-prev" viewBox="0 0 16 14"  xmlns="http://www.w3.org/2000/svg">
        <path d="M1 2V12.5" stroke="white"/>
        <path d="M3 7L12.75 0.937823L12.75 13.0622L3 7Z" fill="#D9D9D9"/>
    </symbol>
    <symbol id="icon-play" viewBox="0 0 15 20"  xmlns="http://www.w3.org/2000/svg">
        <path d="M15 10L-1.01012e-06 0.47372L-1.84293e-06 19.5263L15 10Z" fill="#D9D9D9"/>
    </symbol>
    <symbol id="icon-next" viewBox="0 0 16 14"  xmlns="http://www.w3.org/2000/svg">
        <path d="M15 2V12.5" stroke="white"/>
        <path d="M13 7L3.25 0.937823L3.25 13.0622L13 7Z" fill="#D9D9D9"/>
    </symbol>
    <symbol id="icon-repeat" viewBox="0 0 20 18"  xmlns="http://www.w3.org/2000/svg">
        <path d="M10 3L5 0.113249V5.88675L10 3ZM7 14.5C3.96243 14.5 1.5 12.0376 1.5 9H0.5C0.5 12.5899 3.41015 15.5 7 15.5V14.5ZM1.5 9C1.5 5.96243 3.96243 3.5 7 3.5V2.5C3.41015 2.5 0.5 5.41015 0.5 9H1.5Z" fill="#696969"/>
        <path d="M10 15L15 17.8868V12.1132L10 15ZM13 3.5C16.0376 3.5 18.5 5.96243 18.5 9H19.5C19.5 5.41015 16.5899 2.5 13 2.5V3.5ZM18.5 9C18.5 12.0376 16.0376 14.5 13 14.5V15.5C16.5899 15.5 19.5 12.5899 19.5 9H18.5Z" fill="#696969"/>
    </symbol>
    <symbol id="icon-shuffle" viewBox="0 0 20 18"  xmlns="http://www.w3.org/2000/svg">
        <path d="M19.5 15L14.5 12.1132V17.8868L19.5 15ZM10.1632 12.0833L9.70863 12.2916L10.1632 12.0833ZM7.33683 5.91673L6.8823 6.12505L7.33683 5.91673ZM0.5 3.5H2.79151V2.5H0.5V3.5ZM6.8823 6.12505L9.70863 12.2916L10.6177 11.8749L7.79137 5.7084L6.8823 6.12505ZM14.7085 15.5H15V14.5H14.7085V15.5ZM9.70863 12.2916C10.6047 14.2466 12.5579 15.5 14.7085 15.5V14.5C12.949 14.5 11.3508 13.4745 10.6177 11.8749L9.70863 12.2916ZM2.79151 3.5C4.55105 3.5 6.14918 4.52552 6.8823 6.12505L7.79137 5.7084C6.89533 3.75341 4.94205 2.5 2.79151 2.5V3.5Z" fill="#696969"/>
        <path d="M19.5 3L14.5 5.88675V0.113249L19.5 3ZM10.1632 5.91673L9.70863 5.7084L10.1632 5.91673ZM7.33683 12.0833L6.8823 11.8749L7.33683 12.0833ZM0.5 14.5H2.79151V15.5H0.5V14.5ZM6.8823 11.8749L9.70863 5.7084L10.6177 6.12505L7.79137 12.2916L6.8823 11.8749ZM14.7085 2.5H15V3.5H14.7085V2.5ZM9.70863 5.7084C10.6047 3.75341 12.5579 2.5 14.7085 2.5V3.5C12.949 3.5 11.3508 4.52552 10.6177 6.12505L9.70863 5.7084ZM2.79151 14.5C4.55105 14.5 6.14918 13.4745 6.8823 11.8749L7.79137 12.2916C6.89533 14.2466 4.94205 15.5 2.79151 15.5V14.5Z" fill="#696969"/>
    </symbol>
  <symbol xmlns="http://www.w3.org/2000/svg" fill="none" viewBox="0 0 15 19" id="icon-pause">
    <rect width="5" height="19" fill="#D9D9D9"></rect>
    <rect x="10" width="5" height="19" fill="#D9D9D9"></rect>
  </symbol>
    <symbol fill="none" xmlns="http://www.w3.org/2000/svg" viewBox="0 0 20 20" id="icon-sound-on">
    <path fill-rule="evenodd" clip-rule="evenodd" d="M10.4 1.8C11.5532 0.262376 14 1.07799 14 3.00001V21.1214C14 23.0539 11.5313 23.8627 10.3878 22.3049L6.49356 17H4C2.34315 17 1 15.6569 1 14V10C1 8.34315 2.34315 7 4 7H6.5L10.4 1.8ZM12 3L8.1 8.2C7.72229 8.70361 7.12951 9 6.5 9H4C3.44772 9 3 9.44772 3 10V14C3 14.5523 3.44772 15 4 15H6.49356C7.13031 15 7.72901 15.3032 8.10581 15.8165L12 21.1214V3Z" fill="#D9D9D9"></path>
    <path d="M16.2137 4.17445C16.1094 3.56451 16.5773 3 17.1961 3C17.6635 3 18.0648 3.328 18.1464 3.78824C18.4242 5.35347 19 8.96465 19 12C19 15.0353 18.4242 18.6465 18.1464 20.2118C18.0648 20.672 17.6635 21 17.1961 21C16.5773 21 16.1094 20.4355 16.2137 19.8256C16.5074 18.1073 17 14.8074 17 12C17 9.19264 16.5074 5.8927 16.2137 4.17445Z" fill="#D9D9D9"></path>
    <path d="M21.41 5C20.7346 5 20.2402 5.69397 20.3966 6.35098C20.6758 7.52413 21 9.4379 21 12C21 14.5621 20.6758 16.4759 20.3966 17.649C20.2402 18.306 20.7346 19 21.41 19C21.7716 19 22.0974 18.7944 22.2101 18.4509C22.5034 17.5569 23 15.5233 23 12C23 8.47672 22.5034 6.44306 22.2101 5.54913C22.0974 5.20556 21.7716 5 21.41 5Z" fill="#D9D9D9"></path>
  </symbol>
  <symbol fill="none" xmlns="http://www.w3.org/2000/svg" viewBox="0 0 20 20" id="icon-sound-off">
    <path fill-rule="evenodd" clip-rule="evenodd" d="M14 3.00001C14 1.07799 11.5532 0.262376 10.4 1.8L6.5 7H4C2.34315 7 1 8.34315 1 10V14C1 15.6569 2.34315 17 4 17H6.49356L10.3878 22.3049C11.5313 23.8627 14 23.0539 14 21.1214V3.00001ZM8.1 8.2L12 3V21.1214L8.10581 15.8165C7.72901 15.3032 7.13031 15 6.49356 15H4C3.44772 15 3 14.5523 3 14V10C3 9.44772 3.44772 9 4 9H6.5C7.12951 9 7.72229 8.70361 8.1 8.2Z" fill="#D9D9D9"></path>
    <path d="M21.2929 8.57094C21.6834 8.18041 22.3166 8.18042 22.7071 8.57094C23.0976 8.96146 23.0976 9.59463 22.7071 9.98515L20.7603 11.9319L22.7071 13.8787C23.0976 14.2692 23.0976 14.9024 22.7071 15.2929C22.3166 15.6834 21.6834 15.6834 21.2929 15.2929L19.3461 13.3461L17.3994 15.2929C17.0088 15.6834 16.3757 15.6834 15.9852 15.2929C15.5946 14.9023 15.5946 14.2692 15.9852 13.8787L17.9319 11.9319L15.9852 9.98517C15.5946 9.59464 15.5946 8.96148 15.9852 8.57096C16.3757 8.18043 17.0088 8.18043 17.3994 8.57096L19.3461 10.5177L21.2929 8.57094Z" fill="#D9D9D9"></path>
  </symbol>
</svg>